<svg xmlns="http://www.w3.org/2000/svg" x="0px" y="0px" width="50" height="50" viewBox="0 0 48 48">
<linearGradient id="jARNEdsDfXWIDc9Agz8Hza_KXRsUl3ePNnk_gr1" x1="-1.154" x2="62.754" y1="9.477" y2="46.375" gradientUnits="userSpaceOnUse"><stop offset="0" stop-color="#262626" stop-opacity="0"></stop><stop offset="1" stop-color="#262626" stop-opacity=".8"></stop></linearGradient><path fill="url(#jARNEdsDfXWIDc9Agz8Hza_KXRsUl3ePNnk_gr1)" d="M24,4C12.954,4,4,12.954,4,24c0,11.046,8.954,20,20,20s20-8.954,20-20	C44,12.954,35.046,4,24,4z"></path><linearGradient id="jARNEdsDfXWIDc9Agz8Hzb_KXRsUl3ePNnk_gr2" x1="-4.096" x2="42.675" y1="477.022" y2="523.794" gradientTransform="matrix(1 0 0 -1 0 526)" gradientUnits="userSpaceOnUse"><stop offset="0" stop-color="#262626" stop-opacity="0"></stop><stop offset="1" stop-color="#262626" stop-opacity=".8"></stop></linearGradient><path fill="url(#jARNEdsDfXWIDc9Agz8Hzb_KXRsUl3ePNnk_gr2)" d="M37.908,16.54c-0.98,0.434-2.034,0.724-3.146,0.861c1.13-0.671,2-1.742,2.408-3.006	c-1.058,0.62-2.23,1.076-3.476,1.316C32.698,14.655,31.277,14,29.704,14c-3.022,0-5.472,2.428-5.472,5.422	c0,0.424,0.049,0.837,0.143,1.237c-4.547-0.228-8.579-2.39-11.277-5.67c-0.474,0.801-0.741,1.74-0.741,2.73	c0,1.882,0.964,3.54,2.434,4.516c-0.897-0.027-1.742-0.277-2.481-0.677c0,0.016,0,0.041,0,0.064c0,2.63,1.887,4.821,4.387,5.319	c-0.457,0.126-0.94,0.196-1.438,0.196c-0.353,0-0.698-0.04-1.031-0.1c0.696,2.149,2.716,3.721,5.11,3.767	c-1.873,1.452-4.232,2.322-6.796,2.322c-0.443,0-0.876-0.025-1.304-0.077c2.423,1.534,5.3,2.434,8.388,2.434	c10.063,0,15.568-8.263,15.568-15.433c0-0.235-0.007-0.469-0.018-0.7C36.25,18.591,37.176,17.633,37.908,16.54L37.908,16.54z"></path>
</svg>